<svg width="90" height="68" viewBox="0 0 141 105" fill="none" xmlns="http://www.w3.org/2000/svg">
<path d="M12.5189 32.0596L12.6184 51.0631C12.6248 52.5335 13.9058 53.9397 15.4277 53.8723C16.9495 53.8049 18.2465 52.6362 18.2369 51.0631L18.1374 32.0596C18.1309 30.5892 16.8499 29.183 15.3281 29.2504C13.8063 29.3178 12.5092 30.4865 12.5189 32.0596Z" fill="#FC63FF"/>
<path d="M7.81208 42.8309C12.4385 42.924 17.0618 43.0588 21.6882 43.2354C23.1587 43.29 24.5649 41.903 24.4975 40.4262C24.4269 38.8562 23.2646 37.6779 21.6882 37.6169C17.065 37.4403 12.4385 37.3055 7.81208 37.2124C6.34163 37.1835 4.9354 38.5255 5.00282 40.0216C5.07024 41.5178 6.23568 42.7988 7.81208 42.8309Z" fill="#FC63FF"/>
<path d="M121.284 58.3285C121.162 66.0467 120.857 73.7585 120.366 81.4607C120.228 83.6374 120.073 85.8142 119.903 87.991C119.852 88.6749 120.253 89.5064 120.725 89.9783C121.197 90.4503 122.013 90.8324 122.713 90.8003C124.331 90.7264 125.4 89.5642 125.522 87.991C126.116 80.2953 126.53 72.5867 126.755 64.8716C126.819 62.6917 126.867 60.5085 126.902 58.3253C126.925 56.8548 125.592 55.4486 124.093 55.516C122.594 55.5834 121.309 56.7489 121.284 58.3253V58.3285Z" fill="#FC63FF"/>
<path d="M113.296 72.2888L132.88 71.454C134.347 71.393 135.76 70.2051 135.689 68.6448C135.657 67.9192 135.42 67.1647 134.868 66.6574C134.315 66.1501 133.66 65.8997 132.88 65.8355L132.087 65.7681C131.407 65.7103 130.569 66.1245 130.1 66.59C129.631 67.0555 129.246 67.8775 129.278 68.5774C129.31 69.2773 129.548 70.0574 130.1 70.5647C130.652 71.072 131.307 71.3224 132.087 71.3866L132.88 71.454V65.8355L113.296 66.6703C111.828 66.7313 110.416 67.9192 110.486 69.4795C110.551 70.9467 111.723 72.3562 113.296 72.2888Z" fill="#FC63FF"/>
<path d="M91.1491 29.9893C95.0917 26.6182 98.8577 23.0417 102.428 19.2789C103.439 18.2129 103.564 16.3508 102.428 15.3074C101.291 14.2639 99.5352 14.1676 98.4564 15.3074C94.8862 19.0702 91.1202 22.6468 87.1776 26.0179C86.6543 26.4641 86.3557 27.3406 86.3557 28.0052C86.3557 28.6698 86.6607 29.5174 87.1776 29.9926C87.6945 30.4677 88.4169 30.8498 89.165 30.8145C89.913 30.7792 90.5584 30.4966 91.1523 29.9926L91.1491 29.9893Z" fill="#FC63FF"/>
<path d="M92.5907 83.827L96.5237 91.7089C96.8126 92.29 97.5768 92.8583 98.2028 92.9996C98.8289 93.1408 99.4357 93.1087 100.033 92.8583C101.282 92.3318 102.068 90.8934 101.661 89.545L101.484 88.9671C101.275 88.28 100.819 87.6539 100.193 87.2879C99.5673 86.9219 98.7037 86.7871 98.0294 87.0054C96.6136 87.4645 95.6087 88.9542 96.0678 90.46L96.2444 91.0379L101.378 88.874L97.4451 80.992C96.787 79.6757 94.8189 79.2005 93.6021 79.9839C92.2536 80.8539 91.8908 82.4175 92.5939 83.827H92.5907Z" fill="#FC63FF"/>
<path d="M43.8382 16.8155C45.2541 19.949 46.8144 23.0183 48.5128 26.0074C49.2384 27.2852 51.0941 27.831 52.3558 27.0155C53.6176 26.2 54.1409 24.5401 53.364 23.1724C51.6656 20.1802 50.1085 17.1141 48.6894 13.9805C48.4165 13.3769 47.6203 12.8568 47.0103 12.6899C46.3393 12.5037 45.4435 12.5871 44.8463 12.9724C44.2492 13.3577 43.7194 13.9356 43.5557 14.6515C43.3791 15.4317 43.5107 16.0931 43.8382 16.8155Z" fill="#FC63FF"/>
<path d="M45.7099 86.8228C48.2591 83.8338 50.9432 80.9603 53.746 78.2088C54.7959 77.1782 54.8569 75.2551 53.746 74.2373C52.6351 73.2196 50.895 73.1361 49.7745 74.2373C46.9685 76.9888 44.2876 79.8623 41.7384 82.8513C41.2472 83.426 40.9165 84.0585 40.9165 84.8386C40.9165 85.5289 41.2215 86.3509 41.7384 86.826C42.2553 87.3012 42.9777 87.6832 43.7258 87.6479C44.4738 87.6126 45.2315 87.3879 45.7131 86.826L45.7099 86.8228Z" fill="#FC63FF"/>
<path d="M68.8901 2.80818C68.5883 8.95002 68.2159 15.0918 67.9944 21.2369C67.8852 24.2966 67.8113 27.3563 67.8049 30.4159C67.8017 31.8832 67.7568 33.3697 67.8627 34.8305C67.9687 36.2913 68.2159 37.7007 68.6172 39.0813C69.3749 41.6883 70.566 44.2664 72.1841 46.4592C73.0285 47.6022 73.8408 48.8286 74.8778 49.811C75.9726 50.8513 77.2986 51.5897 78.769 51.9493C80.6376 52.4052 82.6185 52.4309 84.5321 52.3891C87.2835 52.3281 90.035 52.1291 92.7864 52.0199C95.7273 51.9043 98.6714 51.8144 101.612 51.7245C102.376 51.7021 103.137 51.6796 103.901 51.6539C105.369 51.609 106.781 50.3954 106.711 48.8447C106.64 47.2939 105.475 45.9872 103.901 46.0354C100.447 46.1413 96.9923 46.2409 93.5377 46.3725C90.3978 46.4913 87.2578 46.7321 84.1179 46.7771C82.9332 46.7931 81.7452 46.777 80.5702 46.6261L81.3183 46.7257C80.6184 46.6294 79.9249 46.4817 79.2699 46.2088L79.9409 46.4913C79.5171 46.3115 79.1222 46.0836 78.753 45.8042L79.3213 46.2441C78.6856 45.7497 78.1655 45.1332 77.6743 44.4975L78.1141 45.0658C76.7143 43.2551 75.4782 41.3769 74.5825 39.2611L74.865 39.9321C74.2004 38.3364 73.706 36.6734 73.4684 34.9621L73.5679 35.7102C73.3079 33.7068 73.4106 31.636 73.4202 29.6165C73.4331 27.4333 73.478 25.2533 73.5454 23.0734C73.6771 18.7648 73.8954 14.4594 74.1233 10.154C74.2518 7.70753 74.3834 5.25784 74.5054 2.81138C74.5761 1.34093 73.1602 -0.0620891 71.6962 0.0021225C70.1133 0.0727552 68.964 1.2382 68.8869 2.81138L68.8901 2.80818Z" fill="#FC63FF"/>
<path d="M38.563 53.5774C41.7254 53.7476 44.8942 53.7155 48.0598 53.6673C49.6138 53.6448 51.1645 53.616 52.7184 53.6063C54.3686 53.5967 55.99 53.5357 57.6177 53.2178C59.1203 52.9224 60.655 52.3478 61.9199 51.4745C63.1849 50.6012 64.2829 49.5224 65.2557 48.312C67.0697 46.0582 68.7841 43.6953 70.139 41.1364C70.932 39.6371 71.6191 38.0639 72.1553 36.4554C72.6914 34.8469 73.0253 33.0875 73.2244 31.3474C73.3014 30.6795 72.8552 29.8159 72.4025 29.36C71.9145 28.872 71.115 28.506 70.4151 28.5381C69.7152 28.5702 68.9351 28.8078 68.4278 29.36C67.8916 29.9443 67.6957 30.564 67.6059 31.3474C67.5898 31.4854 67.5738 31.6203 67.5545 31.7583L67.654 31.0102C67.3875 32.9783 66.8353 34.8886 66.0712 36.7219L66.3538 36.0509C65.0952 39.0271 63.3101 41.7207 61.3421 44.2731L61.7819 43.7049C60.9311 44.8061 60.0385 45.8784 58.9437 46.7485L59.512 46.3086C58.8988 46.7838 58.2374 47.1659 57.5215 47.4709L58.1925 47.1883C57.2806 47.5576 56.3335 47.7887 55.3607 47.93L56.1088 47.8305C54.7475 48.0135 53.3798 47.9846 52.0089 47.9974C50.5063 48.0103 49.007 48.0392 47.5044 48.0616C44.5218 48.1066 41.5392 48.1226 38.563 47.9621C37.0925 47.885 35.6895 49.3105 35.7537 50.7714C35.8243 52.3606 36.9898 53.4971 38.563 53.5806V53.5774Z" fill="#FC63FF"/>
<path d="M82.1179 46.7546C78.6505 47.4128 75.244 49.0887 72.9838 51.8595C71.9981 53.0699 71.1666 54.3477 70.5405 55.7796C69.8599 57.3431 69.3301 58.926 68.8935 60.573C67.7441 64.9137 67.1213 69.4149 67.1309 73.9065C67.1405 78.3981 67.147 82.7613 67.1341 87.1887C67.1213 92.1876 67.1052 97.1864 67.1341 102.189C67.1437 103.659 68.4216 105.065 69.9434 104.998C71.4652 104.93 72.7623 103.762 72.7526 102.189C72.7013 93.1186 72.7976 84.0455 72.7526 74.9756C72.7398 72.4618 72.8361 69.9671 73.17 67.4693L73.0705 68.2174C73.3498 66.1947 73.7543 64.1913 74.2712 62.2168C74.6372 60.8266 75.0418 59.4429 75.6004 58.1169L75.3179 58.7879C75.8187 57.616 76.4352 56.4988 77.2153 55.4874L76.7755 56.0557C77.3759 55.2884 78.0629 54.5981 78.8303 53.9977L78.262 54.4376C79.116 53.7826 80.0503 53.2529 81.0391 52.8355L80.3681 53.118C81.4115 52.6878 82.4967 52.3828 83.6044 52.1741C84.2626 52.0489 84.956 51.4453 85.2835 50.8834C85.6367 50.2799 85.7844 49.3937 85.5661 48.7195C85.0652 47.1752 83.659 46.4625 82.1115 46.7579L82.1179 46.7546Z" fill="#FC63FF"/>
<path d="M54.7539 53.6126C55.3607 53.5934 55.9611 53.6255 56.5615 53.7025L55.8134 53.603C56.8023 53.7411 57.759 54.0043 58.6773 54.3896L58.0063 54.1071C58.8827 54.4827 59.7046 54.9611 60.4623 55.5358L59.8941 55.0959C60.6967 55.722 61.3902 56.4508 62.0195 57.2502L61.5796 56.682C63.0629 58.6083 64.2637 60.753 65.2108 62.9908L64.9282 62.3197C65.9299 64.7244 66.617 67.2415 66.9702 69.8228L66.8707 69.0748C66.9798 69.9031 67.0536 70.7347 67.0954 71.5694C67.166 73.0334 68.3347 74.4493 69.9046 74.3787C71.3655 74.3145 72.791 73.1426 72.7139 71.5694C72.502 67.2801 71.4586 63.1577 69.6735 59.2601C68.858 57.4814 67.8659 55.7702 66.7005 54.1938C65.352 52.3734 63.8014 50.7809 61.7819 49.699C59.6372 48.5496 57.194 47.9203 54.7539 47.9941C53.2867 48.0391 51.874 49.2559 51.9447 50.8034C52.0153 52.3509 53.1808 53.6608 54.7539 53.6126Z" fill="#FC63FF"/>
</svg>
